<svg xmlns="http://www.w3.org/2000/svg" width="1440" height="440" viewBox="0 0 1440 440" role="img" aria-labelledby="title desc">
<title id="title">Mario Aparicio — Chemical &amp; Operations Engineer</title>
<desc id="desc">Engineering, people and data. Operational Excellence, EHS and Manufacturing.</desc>
<defs><linearGradient id="bg" x2="1" y2="1"><stop stop-color="#09162d"/><stop offset="1" stop-color="#113d58"/></linearGradient><pattern id="grid" width="48" height="48" patternUnits="userSpaceOnUse"><path d="M48 0H0V48" fill="none" stroke="#7fb7cf" stroke-opacity=".075"/></pattern></defs>
<rect width="1440" height="440" rx="24" fill="url(#bg)"/><rect width="1440" height="440" rx="24" fill="url(#grid)"/>
<path d="M64 64h44" stroke="#54dcc4" stroke-width="6" stroke-linecap="round"/>
<text x="64" y="108" font-family="DejaVu Sans,Arial,sans-serif" font-size="15" letter-spacing="4" fill="#85d9ce">ENGINEERING · PEOPLE · DATA</text>
<text x="61" y="197" font-family="DejaVu Sans,Arial,sans-serif" font-size="70" font-weight="700" fill="#f7f8fc">Mario Aparicio</text>
<text x="64" y="249" font-family="DejaVu Sans,Arial,sans-serif" font-size="29" fill="#c4d6e6">Chemical &amp; Operations Engineer</text>
<text x="64" y="323" font-family="DejaVu Sans,Arial,sans-serif" font-size="20" fill="#e5eef7">Operational Excellence  /  EHS  /  Manufacturing</text>
<text x="64" y="382" font-family="DejaVu Sans,Arial,sans-serif" font-size="16" fill="#9fb8cc">PERSONAL ENGINEERING PORTFOLIO</text>
<g transform="translate(1060 86)" fill="none" stroke="#5edbc8" stroke-width="2"><rect width="232" height="232" rx="28" transform="rotate(12 116 116)" opacity=".22"/><rect x="24" y="24" width="184" height="184" rx="24" opacity=".35"/><path d="M44 160V104H101V68H169V138H200" opacity=".8"/><circle cx="44" cy="160" r="7" fill="#5edbc8"/><circle cx="101" cy="104" r="7" fill="#5edbc8"/><circle cx="169" cy="68" r="7" fill="#5edbc8"/><circle cx="200" cy="138" r="7" fill="#5edbc8"/></g>
</svg>
